<svg xmlns="http://www.w3.org/2000/svg" xmlns:xlink="http://www.w3.org/1999/xlink" width="128" height="128" class="icon" p-id="8811" t="1627385061360" version="1.1" viewBox="0 0 1024 1024"><path fill="#A259FF" d="M162.909091 512a165.515636 165.515636 0 0 1 165.515636-165.515636H493.847273v331.031272H328.424727A165.515636 165.515636 0 0 1 162.909091 512z" p-id="8812"/><path fill="#0ACF83" d="M328.424727 1008.500364A165.515636 165.515636 0 0 0 493.847273 842.938182v-165.515637H328.424727a165.469091 165.469091 0 1 0 0 331.031273z" p-id="8813"/><path fill="#F24E1E" d="M162.909091 181.015273A165.515636 165.515636 0 0 1 328.424727 15.499636h165.515637v330.984728H328.424727A165.515636 165.515636 0 0 1 162.909091 181.061818z" p-id="8814"/><path fill="#FF7262" d="M493.940364 15.499636h165.469091a165.515636 165.515636 0 1 1 0 330.984728H493.940364V15.546182z" p-id="8815"/><path fill="#1ABCFE" d="M824.925091 512a165.515636 165.515636 0 1 1-330.984727 0 165.515636 165.515636 0 0 1 330.984727 0z" p-id="8816"/></svg>