<svg xmlns="http://www.w3.org/2000/svg" xmlns:xlink="http://www.w3.org/1999/xlink" width="16" height="16" version="1.1" viewBox="0 0 16 16"><title>attachment</title><g id="attachment" fill="none" fill-rule="evenodd" stroke="none" stroke-width="1"><rect id="Background" width="16" height="16" x="0" y="0"/><rect id="Rectangle-29" width="1" height="9" x="4" y="3" fill="#575757"/><path id="Oval" stroke="#575757" d="M6.5,11 C6.5,12 7.25,12.5 8,12.5 C8.75,12.5 9.5,12 9.5,11"/><path id="Oval-Copy" stroke="#575757" d="M9.5,3 C9.5,1.5 8.5,0.5 7,0.5 C5.5,0.5 4.5,1.5 4.5,3"/><path id="Oval-Copy-2" stroke="#575757" d="M4.5,12 C4.5,14 6,15.5 8,15.5 C10,15.5 11.5,14 11.5,12"/><rect id="Rectangle-29-Copy" width="1" height="6" x="6" y="5" fill="#575757"/><rect id="Rectangle-29-Copy-3" width="1" height="7" x="11" y="5" fill="#575757"/><rect id="Rectangle-29-Copy-2" width="1" height="8" x="9" y="3" fill="#575757"/></g></svg>